<?xml version="1.0" standalone="no"?>
<!DOCTYPE svg PUBLIC "-//W3C//DTD SVG 20010904//EN"
 "http://www.w3.org/TR/2001/REC-SVG-20010904/DTD/svg10.dtd">
<svg version="1.0" xmlns="http://www.w3.org/2000/svg"
 width="500.000000pt" height="500.000000pt" viewBox="0 0 500.000000 500.000000"
 preserveAspectRatio="xMidYMid meet">

<g transform="translate(0.000000,500.000000) scale(0.100000,-0.100000)"
fill="#000000" stroke="none">
<path d="M3366 3027 c-11 -8 -17 -23 -14 -38 2 -19 8 -24 30 -22 16 1 28 -4
30 -12 2 -11 6 -11 22 1 19 13 19 15 3 49 -18 37 -40 44 -71 22z"/>
<path d="M1586 2975 c-3 -8 -13 -15 -23 -15 -10 0 -13 -3 -7 -9 14 -13 114
-25 114 -13 0 5 -7 12 -15 16 -8 3 -15 12 -15 21 0 20 -46 20 -54 0z"/>
<path d="M3461 2914 c0 -11 3 -14 6 -6 3 7 2 16 -1 19 -3 4 -6 -2 -5 -13z"/>
<path d="M1782 2901 c-13 -9 -23 -69 -12 -76 19 -12 11 -45 -10 -45 -17 0 -20
-7 -20 -53 l0 -53 -37 3 -38 2 40 -9 c73 -16 75 -15 75 38 0 61 9 92 26 92 10
0 14 -14 15 -42 1 -24 5 -3 10 47 4 49 6 92 3 94 -7 7 -42 8 -52 2z m-12 -211
c0 -11 -4 -20 -10 -20 -5 0 -10 9 -10 20 0 11 5 20 10 20 6 0 10 -9 10 -20z"/>
<path d="M3472 2870 c0 -14 2 -19 5 -12 2 6 2 18 0 25 -3 6 -5 1 -5 -13z"/>
<path d="M1593 2835 c0 -22 2 -30 4 -17 2 12 2 30 0 40 -3 9 -5 -1 -4 -23z"/>
<path d="M1932 2815 c4 -41 1 -55 -9 -55 -9 0 -13 -15 -13 -49 0 -49 -1 -50
-32 -54 -32 -4 -32 -4 5 -5 29 -2 37 2 38 16 0 14 2 14 8 -3 6 -14 10 -2 15
43 6 52 10 62 26 62 14 0 20 -9 23 -37 2 -21 4 1 5 50 l2 87 -36 0 -36 0 4
-55z"/>
<path d="M3482 2785 c0 -16 2 -22 5 -12 2 9 2 23 0 30 -3 6 -5 -1 -5 -18z"/>
<path d="M3441 2748 c0 -15 -5 -30 -11 -33 -5 -3 -10 -14 -9 -23 0 -12 3 -11
9 6 5 12 17 22 27 22 11 0 14 3 7 8 -7 4 -14 16 -17 27 -4 16 -5 14 -6 -7z"/>
<path d="M1630 2751 c0 -5 7 -12 16 -15 14 -5 15 -4 4 9 -14 17 -20 19 -20 6z"/>
<path d="M1265 2721 c-11 -13 -15 -25 -9 -31 10 -10 243 -44 251 -36 3 2 -22
8 -56 12 -44 5 -61 11 -61 22 0 11 7 13 33 8 17 -4 66 -8 107 -11 l75 -4 -80
10 c-44 5 -107 17 -140 25 -99 27 -99 27 -120 5z"/>
<path d="M3483 2685 c0 -27 2 -38 4 -22 2 15 2 37 0 50 -2 12 -4 0 -4 -28z"/>
<path d="M1580 2709 c0 -5 5 -7 10 -4 6 3 10 8 10 11 0 2 -4 4 -10 4 -5 0 -10
-5 -10 -11z"/>
<path d="M3380 2660 c-122 -30 -655 -42 -1140 -27 -146 5 -153 4 -60 -4 58 -5
308 -10 555 -10 354 -1 473 2 558 14 60 8 114 20 120 26 6 6 9 11 7 10 -3 -1
-21 -5 -40 -9z"/>
<path d="M2008 2643 c12 -2 32 -2 45 0 12 2 2 4 -23 4 -25 0 -35 -2 -22 -4z"/>
<path d="M3461 2559 c-7 -34 -10 -63 -8 -66 5 -4 10 16 23 90 10 62 -2 42 -15
-24z"/>
<path d="M1541 2554 c6 -7 30 -20 55 -30 24 -9 46 -25 50 -36 3 -11 8 -18 10
-15 13 13 -15 40 -67 65 -32 15 -54 22 -48 16z"/>
<path d="M3441 2470 c-3 -35 -61 -138 -95 -168 -20 -17 -33 -32 -29 -33 103
-7 153 -7 228 0 l90 8 -139 2 -138 1 16 23 c30 39 77 148 73 165 -4 13 -5 14
-6 2z"/>
<path d="M1661 2417 c-1 -10 4 -28 10 -39 11 -21 11 -21 -172 -16 -101 3 -170
2 -152 -2 50 -11 393 -23 393 -13 0 4 -13 14 -29 21 -16 7 -34 25 -40 40 -6
19 -10 21 -10 9z"/>
<path d="M2502 2163 c-13 -2 -38 -20 -57 -38 -79 -80 -64 -264 26 -311 38 -19
114 -18 149 3 94 55 100 259 10 323 -29 20 -89 31 -128 23z m103 -57 c67 -67
51 -234 -24 -266 -58 -23 -111 8 -130 77 -14 48 -14 73 0 129 20 80 102 112
154 60z"/>
<path d="M2875 2163 c-69 -19 -114 -92 -115 -186 0 -71 17 -114 59 -150 27
-22 42 -27 87 -27 30 0 70 7 89 14 l35 15 0 85 0 86 -61 0 c-52 0 -60 -2 -57
-17 2 -12 14 -19 36 -21 32 -3 32 -4 32 -58 0 -50 -2 -55 -27 -65 -38 -14 -85
-3 -113 26 -19 20 -25 40 -28 89 -2 35 1 80 8 100 22 68 86 94 149 61 25 -12
31 -12 41 0 9 11 7 17 -12 29 -26 17 -93 27 -123 19z"/>
<path d="M1370 1980 l0 -180 100 0 c93 0 100 1 100 20 0 18 -7 20 -75 20 l-75
0 0 65 0 65 60 0 c47 0 60 3 60 15 0 12 -13 15 -60 15 l-60 0 0 60 0 60 69 0
c60 0 69 2 74 20 5 19 0 20 -94 20 l-99 0 0 -180z"/>
<path d="M1660 1980 l0 -180 95 0 c88 0 95 1 95 20 0 18 -7 20 -75 20 l-75 0
0 160 c0 153 -1 160 -20 160 -19 0 -20 -7 -20 -180z"/>
<path d="M2060 1980 l0 -180 25 0 c25 0 25 1 25 85 l0 85 75 0 75 0 0 -85 c0
-84 0 -85 25 -85 l25 0 0 180 0 180 -25 0 c-24 0 -25 -2 -25 -75 l0 -75 -75 0
-75 0 0 75 c0 73 -1 75 -25 75 l-25 0 0 -180z"/>
<path d="M3175 2148 c-3 -7 -29 -88 -59 -180 l-54 -168 24 0 c20 0 26 8 36 45
l12 45 73 0 73 0 11 -45 c10 -38 15 -45 35 -45 13 0 24 3 24 6 0 4 -25 85 -56
180 -55 174 -55 174 -85 174 -16 0 -32 -6 -34 -12z m60 -111 c14 -46 25 -88
25 -95 0 -8 -19 -12 -56 -12 -41 0 -55 3 -52 13 3 6 15 49 28 95 13 45 25 82
27 82 1 0 14 -37 28 -83z"/>
<path d="M3410 1980 l0 -180 25 0 c23 0 24 3 27 78 3 75 4 77 30 80 24 3 31
-5 70 -77 38 -71 46 -81 71 -81 16 0 26 3 24 8 -2 4 -24 40 -48 81 -33 56 -40
76 -29 79 32 11 60 51 60 87 0 76 -44 105 -160 105 l-70 0 0 -180z m161 129
c14 -7 19 -21 19 -49 0 -49 -27 -70 -87 -70 l-43 0 0 63 c0 35 3 67 8 71 8 9
77 -1 103 -15z"/>
</g>
</svg>
